<svg xmlns="http://www.w3.org/2000/svg" width="1200" height="340" viewBox="0 0 1200 340" role="img" aria-labelledby="title desc">
  <title id="title">Filipe Reis — perfil de desenvolvimento</title>
  <desc id="desc">Capa azul escura com linhas geométricas em verde água e o nome Filipe Reis.</desc>
  <defs>
    <linearGradient id="background" x1="0" y1="0" x2="1" y2="1">
      <stop offset="0" stop-color="#0B1423" />
      <stop offset="0.52" stop-color="#132741" />
      <stop offset="1" stop-color="#1B3257" />
    </linearGradient>
    <linearGradient id="accent" x1="0" y1="0" x2="1" y2="0">
      <stop offset="0" stop-color="#64E6D2" />
      <stop offset="1" stop-color="#8BA5FF" />
    </linearGradient>
    <pattern id="grid" width="40" height="40" patternUnits="userSpaceOnUse">
      <path d="M40 0H0V40" fill="none" stroke="#A3C9E9" stroke-opacity="0.09" />
    </pattern>
    <clipPath id="frame"><rect width="1200" height="340" rx="18" /></clipPath>
  </defs>
  <g clip-path="url(#frame)">
    <rect width="1200" height="340" fill="url(#background)" />
    <rect width="1200" height="340" fill="url(#grid)" />
    <circle cx="1055" cy="165" r="216" fill="none" stroke="#64E6D2" stroke-opacity="0.11" stroke-width="1.5" />
    <circle cx="1055" cy="165" r="157" fill="none" stroke="#8BA5FF" stroke-opacity="0.18" stroke-width="1.5" />
    <circle cx="1055" cy="165" r="98" fill="none" stroke="#64E6D2" stroke-opacity="0.2" stroke-width="1.5" />
    <path d="M865 326L1200 66M951 340L1200 150" fill="none" stroke="#64E6D2" stroke-opacity="0.22" stroke-width="2" />
    <rect x="62" y="59" width="155" height="30" rx="15" fill="#64E6D2" fill-opacity="0.11" stroke="#64E6D2" stroke-opacity="0.42" />
    <text x="80" y="79" font-family="Arial, Helvetica, sans-serif" font-size="13" font-weight="700" letter-spacing="2" fill="#91EFE2">PORTFÓLIO · 2026</text>
    <text x="62" y="165" font-family="Arial, Helvetica, sans-serif" font-size="67" font-weight="700" fill="#F3F7FD">Filipe Reis</text>
    <rect x="62" y="190" width="87" height="5" rx="2.5" fill="url(#accent)" />
    <text x="62" y="241" font-family="Arial, Helvetica, sans-serif" font-size="23" fill="#CEDBEA">Análise e Desenvolvimento de Sistemas · IFBA</text>
    <text x="62" y="283" font-family="Arial, Helvetica, sans-serif" font-size="17" letter-spacing="1" fill="#88A9C3">SALVADOR, BAHIA  /  DESENVOLVIMENTO DE SOFTWARE</text>
    <path d="M991 137l-40 29 40 29M1118 137l40 29-40 29M1074 123l-39 86" fill="none" stroke="url(#accent)" stroke-width="12" stroke-linecap="round" stroke-linejoin="round" />
    <rect y="334" width="1200" height="6" fill="url(#accent)" />
  </g>
</svg>
